<?xml version="1.0" encoding="UTF-8" ?>
<!DOCTYPE svg PUBLIC "-//W3C//DTD SVG 1.1//EN" "http://www.w3.org/Graphics/SVG/1.1/DTD/svg11.dtd">
<svg width="400pt" height="400pt" viewBox="0 0 400 400" version="1.1" xmlns="http://www.w3.org/2000/svg">
<g id="#f8dc3dff">
<path fill="#f8dc3d" opacity="1.00" d=" M 0.00 0.00 L 400.00 0.00 L 400.00 400.00 L 0.00 400.00 L 0.00 0.00 M 343.85 276.52 C 337.80 277.87 332.28 282.06 330.06 287.94 C 327.44 294.91 327.93 303.41 332.65 309.39 C 338.36 317.47 349.47 318.79 355.47 326.45 C 357.91 330.19 356.60 336.52 351.88 337.71 C 343.45 339.90 335.14 335.92 327.63 332.48 C 327.61 337.32 327.61 342.16 327.63 347.00 C 333.94 350.02 340.92 351.56 347.91 351.47 C 355.46 351.11 363.74 348.76 368.29 342.27 C 373.17 334.94 373.30 324.28 367.73 317.28 C 362.20 310.38 353.29 307.87 346.54 302.52 C 341.91 299.03 343.04 290.12 349.05 288.89 C 355.17 287.61 361.15 290.52 366.65 292.88 C 368.32 288.86 369.92 284.81 371.59 280.79 C 363.06 276.63 353.26 274.37 343.85 276.52 M 28.09 276.64 C 28.17 301.10 28.08 325.57 28.14 350.03 C 37.41 350.05 46.68 350.01 55.95 350.06 C 63.23 350.01 71.01 347.44 75.55 341.45 C 80.52 334.63 81.07 324.65 76.45 317.51 C 74.22 314.06 70.19 312.88 66.68 311.25 C 72.24 309.73 76.56 304.92 77.25 299.17 C 77.55 294.63 77.85 289.66 75.26 285.67 C 72.33 280.78 66.61 278.63 61.28 277.64 C 50.29 275.96 39.15 276.84 28.09 276.64 M 84.37 350.02 C 89.55 350.04 94.73 350.03 99.91 350.03 C 99.96 340.65 99.91 331.27 99.94 321.89 C 102.17 321.88 104.39 321.88 106.62 321.88 C 112.00 331.28 117.23 340.78 122.82 350.06 C 128.52 350.01 134.23 350.04 139.93 350.04 C 133.24 339.49 126.58 328.92 119.89 318.37 C 122.79 316.51 125.76 314.58 127.79 311.74 C 132.86 305.04 133.06 295.61 129.83 288.09 C 127.11 282.07 120.74 278.81 114.53 277.64 C 104.56 275.90 94.41 276.90 84.36 276.61 C 84.37 301.08 84.35 325.55 84.37 350.02 M 139.04 276.64 C 139.12 292.42 139.03 308.19 139.08 323.97 C 139.23 330.62 140.74 337.62 145.22 342.76 C 150.48 349.07 159.05 351.38 166.97 351.51 C 175.14 351.37 183.88 348.80 189.26 342.30 C 193.76 336.95 195.17 329.79 195.25 322.98 C 195.23 307.53 195.24 292.08 195.24 276.63 C 190.05 276.62 184.86 276.64 179.66 276.61 C 179.65 292.41 179.71 308.21 179.64 324.01 C 179.41 329.33 177.79 336.17 171.89 337.76 C 167.65 338.69 162.61 338.83 159.02 335.98 C 155.30 332.83 154.75 327.59 154.68 323.03 C 154.70 307.57 154.65 292.10 154.71 276.64 C 149.48 276.62 144.26 276.62 139.04 276.64 M 203.33 350.03 C 207.97 350.04 212.61 350.04 217.26 350.03 C 217.26 337.35 217.28 324.68 217.25 312.01 C 217.32 305.52 216.13 299.07 216.57 292.57 C 222.31 311.64 227.46 330.90 233.06 350.03 C 237.86 350.04 242.67 350.04 247.47 350.02 C 252.36 333.72 257.41 317.47 262.37 301.18 C 263.16 298.21 264.04 295.25 265.42 292.49 C 264.21 311.64 264.99 330.85 264.77 350.03 C 269.48 350.04 274.18 350.04 278.89 350.03 C 278.95 325.57 278.85 301.10 278.94 276.64 C 271.96 276.62 264.98 276.62 258.00 276.64 C 252.30 295.50 246.41 314.31 240.91 333.24 C 235.04 314.48 230.01 295.47 224.49 276.62 C 217.44 276.63 210.39 276.65 203.34 276.60 C 203.29 301.07 203.32 325.55 203.33 350.03 M 307.81 276.62 C 307.81 300.42 307.82 324.22 307.81 348.02 C 307.87 352.29 305.88 357.24 301.36 358.39 C 297.11 359.20 292.71 358.74 288.49 358.01 C 288.48 362.26 288.48 366.52 288.47 370.78 C 295.25 372.29 302.48 372.40 309.13 370.23 C 313.79 368.73 317.88 365.43 320.14 361.07 C 323.27 355.60 323.46 349.10 323.39 342.97 C 323.36 320.85 323.37 298.74 323.38 276.62 C 318.19 276.63 313.00 276.63 307.81 276.62 M 291.53 334.57 C 286.13 334.93 283.19 340.78 284.60 345.66 C 286.09 353.44 298.94 353.89 301.42 346.57 C 302.09 343.21 302.24 339.04 299.42 336.58 C 297.24 334.86 294.26 334.10 291.53 334.57 Z" />
<path fill="#f8dc3d" opacity="1.00" d=" M 43.72 289.86 C 48.53 290.11 53.60 289.07 58.19 290.90 C 62.56 292.59 62.57 298.40 61.05 302.03 C 57.15 307.67 49.43 304.85 43.71 305.52 C 43.73 300.30 43.72 295.08 43.72 289.86 Z" />
<path fill="#f8dc3d" opacity="1.00" d=" M 99.94 289.87 C 104.93 289.91 111.21 289.02 114.75 293.40 C 117.80 298.04 116.94 305.87 111.55 308.44 C 107.90 310.02 103.81 309.55 99.94 309.67 C 99.92 303.07 99.93 296.47 99.94 289.87 Z" />
<path fill="#f8dc3d" opacity="1.00" d=" M 43.74 318.05 C 49.63 318.51 56.37 316.72 61.49 320.51 C 65.70 325.02 64.67 334.08 58.55 336.41 C 53.78 338.03 48.66 337.26 43.72 337.44 C 43.73 330.97 43.70 324.51 43.74 318.05 Z" />
</g>
<g id="#2e2e2cff">
<path fill="#2e2e2c" opacity="1.00" d=" M 343.85 276.52 C 353.26 274.37 363.06 276.63 371.59 280.79 C 369.92 284.81 368.32 288.86 366.65 292.88 C 361.15 290.52 355.17 287.61 349.05 288.89 C 343.04 290.12 341.91 299.03 346.54 302.52 C 353.29 307.87 362.20 310.38 367.73 317.28 C 373.30 324.28 373.17 334.94 368.29 342.27 C 363.74 348.76 355.46 351.11 347.91 351.47 C 340.92 351.56 333.94 350.02 327.63 347.00 C 327.61 342.16 327.61 337.32 327.63 332.48 C 335.14 335.92 343.45 339.90 351.88 337.71 C 356.60 336.52 357.91 330.19 355.47 326.45 C 349.47 318.79 338.36 317.47 332.65 309.39 C 327.93 303.41 327.44 294.91 330.06 287.94 C 332.28 282.06 337.80 277.87 343.85 276.52 Z" />
<path fill="#2e2e2c" opacity="1.00" d=" M 28.09 276.64 C 39.15 276.84 50.29 275.96 61.28 277.64 C 66.61 278.63 72.33 280.78 75.26 285.67 C 77.85 289.66 77.55 294.63 77.25 299.17 C 76.56 304.92 72.24 309.73 66.68 311.25 C 70.19 312.88 74.22 314.06 76.45 317.51 C 81.07 324.65 80.52 334.63 75.55 341.45 C 71.01 347.44 63.23 350.01 55.95 350.06 C 46.68 350.01 37.41 350.05 28.14 350.03 C 28.08 325.57 28.17 301.10 28.09 276.64 M 43.72 289.86 C 43.72 295.08 43.73 300.30 43.71 305.52 C 49.43 304.85 57.15 307.67 61.05 302.03 C 62.57 298.40 62.56 292.59 58.19 290.90 C 53.60 289.07 48.53 290.11 43.72 289.86 M 43.74 318.05 C 43.70 324.51 43.73 330.97 43.72 337.44 C 48.66 337.26 53.78 338.03 58.55 336.41 C 64.67 334.08 65.70 325.02 61.49 320.51 C 56.37 316.72 49.63 318.51 43.74 318.05 Z" />
<path fill="#2e2e2c" opacity="1.00" d=" M 84.37 350.02 C 84.35 325.55 84.37 301.08 84.36 276.61 C 94.41 276.90 104.56 275.90 114.53 277.64 C 120.74 278.81 127.11 282.07 129.83 288.09 C 133.06 295.61 132.86 305.04 127.79 311.74 C 125.76 314.58 122.79 316.51 119.89 318.37 C 126.58 328.92 133.24 339.49 139.93 350.04 C 134.23 350.04 128.52 350.01 122.82 350.06 C 117.23 340.78 112.00 331.28 106.62 321.88 C 104.39 321.88 102.17 321.88 99.94 321.89 C 99.91 331.27 99.96 340.65 99.91 350.03 C 94.73 350.03 89.55 350.04 84.37 350.02 M 99.94 289.87 C 99.93 296.47 99.92 303.07 99.94 309.67 C 103.81 309.55 107.90 310.02 111.55 308.44 C 116.94 305.87 117.80 298.04 114.75 293.40 C 111.21 289.02 104.93 289.91 99.94 289.87 Z" />
<path fill="#2e2e2c" opacity="1.00" d=" M 139.04 276.64 C 144.26 276.62 149.48 276.62 154.71 276.64 C 154.65 292.10 154.70 307.57 154.68 323.03 C 154.75 327.59 155.30 332.83 159.02 335.98 C 162.61 338.83 167.65 338.69 171.89 337.76 C 177.79 336.17 179.41 329.33 179.64 324.01 C 179.71 308.21 179.65 292.41 179.66 276.61 C 184.86 276.64 190.05 276.62 195.24 276.63 C 195.24 292.08 195.23 307.53 195.25 322.98 C 195.17 329.79 193.76 336.95 189.26 342.30 C 183.88 348.80 175.14 351.37 166.97 351.51 C 159.05 351.38 150.48 349.07 145.22 342.76 C 140.74 337.62 139.23 330.62 139.08 323.97 C 139.03 308.19 139.12 292.42 139.04 276.64 Z" />
<path fill="#2e2e2c" opacity="1.00" d=" M 203.33 350.03 C 203.32 325.55 203.29 301.07 203.34 276.60 C 210.39 276.65 217.44 276.63 224.49 276.62 C 230.01 295.47 235.04 314.48 240.91 333.24 C 246.41 314.31 252.30 295.50 258.00 276.64 C 264.98 276.62 271.96 276.62 278.94 276.64 C 278.85 301.10 278.95 325.57 278.89 350.03 C 274.18 350.04 269.48 350.04 264.77 350.03 C 264.99 330.85 264.21 311.64 265.42 292.49 C 264.04 295.25 263.16 298.21 262.37 301.18 C 257.41 317.47 252.36 333.72 247.47 350.02 C 242.67 350.04 237.86 350.04 233.06 350.03 C 227.46 330.90 222.31 311.64 216.57 292.57 C 216.13 299.07 217.32 305.52 217.25 312.01 C 217.28 324.68 217.26 337.35 217.26 350.03 C 212.61 350.04 207.97 350.04 203.33 350.03 Z" />
<path fill="#2e2e2c" opacity="1.00" d=" M 307.81 276.62 C 313.00 276.63 318.19 276.63 323.38 276.62 C 323.37 298.74 323.36 320.85 323.39 342.97 C 323.46 349.10 323.27 355.60 320.14 361.07 C 317.88 365.43 313.79 368.73 309.13 370.23 C 302.48 372.40 295.25 372.29 288.47 370.78 C 288.48 366.52 288.48 362.26 288.49 358.01 C 292.71 358.74 297.11 359.20 301.36 358.39 C 305.88 357.24 307.87 352.29 307.81 348.02 C 307.82 324.22 307.81 300.42 307.81 276.62 Z" />
<path fill="#2e2e2c" opacity="1.00" d=" M 291.53 334.57 C 294.26 334.10 297.24 334.86 299.42 336.58 C 302.24 339.04 302.09 343.21 301.42 346.57 C 298.94 353.89 286.09 353.44 284.60 345.66 C 283.19 340.78 286.13 334.93 291.53 334.57 Z" />
</g>
</svg>
